<?xml version="1.0" standalone="no"?>
<!DOCTYPE svg PUBLIC "-//W3C//DTD SVG 1.1//EN" "http://www.w3.org/Graphics/SVG/1.1/DTD/svg11.dtd" >
<svg xmlns="http://www.w3.org/2000/svg" xmlns:xlink="http://www.w3.org/1999/xlink" version="1.1">
<metadata></metadata>
<defs>
<font id="minecraft_rusregular" horiz-adv-x="1105" >
<font-face units-per-em="2048" ascent="1792" descent="-256" />
<missing-glyph horiz-adv-x="368" />
<glyph horiz-adv-x="0" />
<glyph horiz-adv-x="682" />
<glyph unicode=" "  horiz-adv-x="368" />
<glyph unicode="&#x09;" horiz-adv-x="368" />
<glyph unicode="&#xa0;" horiz-adv-x="368" />
<glyph unicode="!" horiz-adv-x="368" d="M0 0v184h184v-184h-184zM0 369v921h184v-921h-184z" />
<glyph unicode="&#x22;" horiz-adv-x="921" d="M0 737v185h184v-185h-184zM184 922v368h185v-368h-185zM369 737v185h184v-185h-184zM553 922v368h184v-368h-184z" />
<glyph unicode="#" d="M0 369v184h184v184h-184v185h184v368h185v-368h184v368h184v-368h185v-185h-185v-184h185v-184h-185v-369h-184v369h-184v-369h-185v369h-184zM369 553h184v184h-184v-184z" />
<glyph unicode="$" d="M0 184v185h737v-185h-184v-184h-184v184h-369zM0 737v185h184v-185h-184zM184 553v184h553v-184h-553zM184 922v184h185v184h184v-184h369v-184h-738zM737 369v184h185v-184h-185z" />
<glyph unicode="%" d="M0 0v184h184v-184h-184zM0 922v368h184v-368h-184zM184 184v369h185v-369h-185zM369 553v184h184v-184h-184zM553 737v369h184v-369h-184zM737 0v369h185v-369h-185zM737 1106v184h185v-184h-185z" />
<glyph unicode="&#x26;" horiz-adv-x="1290" d="M0 184v369h184v-369h-184zM184 0v184h369v-184h-369zM184 553v553h185v-369h184v-184h-369zM369 1106v184h368v-553h-184v369h-184zM553 184v369h369v-369h184v-184h-369v184h-184zM922 553v184h184v-184h-184z" />
<glyph unicode="'" horiz-adv-x="552" d="M0 737v185h184v-185h-184zM184 922v368h185v-368h-185z" />
<glyph unicode="(" horiz-adv-x="921" d="M0 184v738h184v-738h-184zM184 0v184h185v-184h-185zM184 922v184h185v-184h-185zM369 0h368v-184h-368v184zM369 1106v184h368v-184h-368z" />
<glyph unicode=")" horiz-adv-x="921" d="M0 0h369v-184h-369v184zM0 1106v184h369v-184h-369zM369 0v184h184v-184h-184zM369 922v184h184v-184h-184zM553 184v738h184v-738h-184z" />
<glyph unicode="*" horiz-adv-x="921" d="M0 369v184h184v-184h-184zM0 737v185h184v-185h-184zM184 553v184h369v-184h-369zM553 369v184h184v-184h-184zM553 737v185h184v-185h-184z" />
<glyph unicode="+" d="M0 553v184h369v369h184v-369h369v-184h-369v-369h-184v369h-369z" />
<glyph unicode="," horiz-adv-x="368" d="M0 -184v553h184v-553h-184z" />
<glyph unicode="-" d="M0 553v184h922v-184h-922z" />
<glyph unicode="." horiz-adv-x="368" d="M0 0v369h184v-369h-184z" />
<glyph unicode="/" d="M0 0v184h184v-184h-184zM184 184v369h185v-369h-185zM369 553v184h184v-184h-184zM553 737v369h184v-369h-184zM737 1106v184h185v-184h-185z" />
<glyph unicode="0" d="M0 184v922h184v-553h185v-184h-185v-185h-184zM184 0v184h553v-184h-553zM184 1106v184h553v-184h-553zM369 553v184h184v-184h-184zM553 737v185h184v184h185v-922h-185v553h-184z" />
<glyph unicode="1" d="M0 0v184h369v738h-185v184h185v184h184v-1106h369v-184h-922z" />
<glyph unicode="2" d="M0 0v369h184v-185h553v185h185v-369h-922zM0 922v184h184v-184h-184zM184 369v184h185v-184h-185zM184 1106v184h553v-184h-553zM369 553v184h368v-184h-368zM737 737v369h185v-369h-185z" />
<glyph unicode="3" d="M0 184v185h184v-185h-184zM0 922v184h184v-184h-184zM184 0v184h553v-184h-553zM184 1106v184h553v-184h-553zM369 553v184h368v-184h-368zM737 184v369h185v-369h-185zM737 737v369h185v-369h-185z" />
<glyph unicode="4" d="M0 369v368h184v-184h553v553h-184v184h369v-1290h-185v369h-737zM184 737v185h185v-185h-185zM369 922v184h184v-184h-184z" />
<glyph unicode="5" d="M0 184v185h184v-185h-184zM0 737v553h922v-184h-738v-184h553v-185h-737zM184 0v184h553v-184h-553zM737 184v553h185v-553h-185z" />
<glyph unicode="6" d="M0 184v738h184v-185h553v-184h-553v-369h-184zM184 0v184h553v-184h-553zM184 922v184h185v-184h-185zM369 1106v184h368v-184h-368zM737 184v369h185v-369h-185z" />
<glyph unicode="7" d="M0 922v368h922v-553h-185v369h-553v-184h-184zM369 0v553h184v-553h-184zM553 553v184h184v-184h-184z" />
<glyph unicode="8" d="M0 184v369h184v-369h-184zM0 737v369h184v-369h-184zM184 0v184h553v-184h-553zM184 553v184h553v-184h-553zM184 1106v184h553v-184h-553zM737 184v369h185v-369h-185zM737 737v369h185v-369h-185z" />
<glyph unicode="9" d="M0 737v369h184v-369h-184zM184 0v184h369v-184h-369zM184 553v184h553v369h185v-737h-185v184h-553zM184 1106v184h553v-184h-553zM553 184v185h184v-185h-184z" />
<glyph unicode=":" horiz-adv-x="368" d="M0 0v369h184v-369h-184zM0 737v369h184v-369h-184z" />
<glyph unicode=";" horiz-adv-x="368" d="M0 -184v553h184v-553h-184zM0 737v369h184v-369h-184z" />
<glyph unicode="&#x3c;" horiz-adv-x="921" d="M0 553v184h184v-184h-184zM184 369v184h185v-184h-185zM184 737v185h185v-185h-185zM369 184v185h184v-185h-184zM369 922v184h184v-184h-184zM553 0v184h184v-184h-184zM553 1106v184h184v-184h-184z" />
<glyph unicode="=" d="M0 184v185h922v-185h-922zM0 737v185h922v-185h-922z" />
<glyph unicode="&#x3e;" horiz-adv-x="921" d="M0 0v184h184v-184h-184zM0 1106v184h184v-184h-184zM184 184v185h185v-185h-185zM184 922v184h185v-184h-185zM369 369v184h184v-184h-184zM369 737v185h184v-185h-184zM553 553v184h184v-184h-184z" />
<glyph unicode="?" d="M0 922v184h184v-184h-184zM184 1106v184h553v-184h-553zM369 0v184h184v-184h-184zM369 369v184h184v-184h-184zM553 553v184h184v-184h-184zM737 737v369h185v-369h-185z" />
<glyph unicode="@" horiz-adv-x="1290" d="M0 184v922h184v-922h-184zM184 0v184h738v-184h-738zM184 1106v184h738v-184h-738zM369 369v553h368v-369h185v553h184v-737h-737z" />
<glyph unicode="A" d="M0 0v1106h184v-184h553v184h185v-1106h-185v737h-553v-737h-184zM184 1106v184h553v-184h-553z" />
<glyph unicode="B" d="M0 0v1290h737v-184h-553v-184h553v-185h-553v-553h553v-184h-737zM737 184v553h185v-553h-185zM737 922v184h185v-184h-185z" />
<glyph unicode="C" d="M0 184v922h184v-922h-184zM184 0v184h553v-184h-553zM184 1106v184h553v-184h-553zM737 184v185h185v-185h-185zM737 922v184h185v-184h-185z" />
<glyph unicode="D" d="M0 0v1290h737v-184h-553v-922h553v-184h-737zM737 184v922h185v-922h-185z" />
<glyph unicode="E" d="M0 0v1290h922v-184h-738v-184h369v-185h-369v-553h738v-184h-922z" />
<glyph unicode="F" d="M0 0v1290h922v-184h-738v-184h369v-185h-369v-737h-184z" />
<glyph unicode="G" d="M0 184v922h184v-922h-184zM184 0v184h553v-184h-553zM184 1106v184h738v-184h-738zM553 737v185h369v-738h-185v553h-184z" />
<glyph unicode="H" d="M0 0v1290h184v-368h553v368h185v-1290h-185v737h-553v-737h-184z" />
<glyph unicode="I" horiz-adv-x="737" d="M0 0v184h184v922h-184v184h553v-184h-184v-922h184v-184h-553z" />
<glyph unicode="J" d="M0 184v185h184v-185h-184zM184 0v184h553v-184h-553zM737 184v1106h185v-1106h-185z" />
<glyph unicode="K" d="M0 0v1290h184v-368h369v-185h-369v-737h-184zM553 553v184h184v-184h-184zM553 922v184h184v-184h-184zM737 0v553h185v-553h-185zM737 1106v184h185v-184h-185z" />
<glyph unicode="L" d="M0 0v1290h184v-1106h738v-184h-922z" />
<glyph unicode="M" d="M0 0v1290h184v-184h185v-184h-185v-922h-184zM369 737v185h184v-185h-184zM553 922v184h184v184h185v-1290h-185v922h-184z" />
<glyph unicode="N" d="M0 0v1290h184v-184h185v-184h-185v-922h-184zM369 737v185h184v-185h-184zM553 553v184h184v553h185v-1290h-185v553h-184z" />
<glyph unicode="O" d="M0 184v922h184v-922h-184zM184 0v184h553v-184h-553zM184 1106v184h553v-184h-553zM737 184v922h185v-922h-185z" />
<glyph unicode="P" d="M0 0v1290h737v-184h-553v-184h553v-185h-553v-737h-184zM737 922v184h185v-184h-185z" />
<glyph unicode="Q" d="M0 184v922h184v-922h-184zM184 0v184h369v-184h-369zM184 1106v184h553v-184h-553zM553 184v185h184v-185h-184zM737 0v184h185v-184h-185zM737 369v737h185v-737h-185z" />
<glyph unicode="R" d="M0 0v1290h737v-184h-553v-184h553v-185h-553v-737h-184zM737 0v737h185v-737h-185zM737 922v184h185v-184h-185z" />
<glyph unicode="S" d="M0 184v185h184v-185h-184zM0 922v184h184v-184h-184zM184 0v184h553v-184h-553zM184 737v185h553v-185h-553zM184 1106v184h738v-184h-738zM737 184v553h185v-553h-185z" />
<glyph unicode="T" d="M0 1106v184h922v-184h-369v-1106h-184v1106h-369z" />
<glyph unicode="U" d="M0 184v1106h184v-1106h-184zM184 0v184h553v-184h-553zM737 184v1106h185v-1106h-185z" />
<glyph unicode="V" d="M0 553v737h184v-737h-184zM184 184v369h185v-369h-185zM369 0v184h184v-184h-184zM553 184v369h184v-369h-184zM737 553v737h185v-737h-185z" />
<glyph unicode="W" d="M0 0v1290h184v-921h185v-185h-185v-184h-184zM369 369v184h184v-184h-184zM553 184v185h184v921h185v-1290h-185v184h-184z" />
<glyph unicode="X" d="M0 0v553h184v-553h-184zM0 1106v184h184v-184h-184zM184 553v184h185v-184h-185zM184 922v184h185v-184h-185zM369 737v185h184v-185h-184zM553 553v184h184v-184h-184zM553 922v184h184v-184h-184zM737 0v553h185v-553h-185zM737 1106v184h185v-184h-185z" />
<glyph unicode="Y" d="M0 1106v184h184v-184h-184zM184 922v184h185v-184h-185zM369 0v922h184v-922h-184zM553 922v184h184v-184h-184zM737 1106v184h185v-184h-185z" />
<glyph unicode="Z" d="M0 0v369h184v-185h738v-184h-922zM0 1106v184h922v-368h-185v184h-737zM184 369v184h185v-184h-185zM369 553v184h184v-184h-184zM553 737v185h184v-185h-184z" />
<glyph unicode="[" horiz-adv-x="737" d="M0 0v1290h553v-184h-369v-922h369v-184h-553z" />
<glyph unicode="\" d="M0 1106v184h184v-184h-184zM184 737v369h185v-369h-185zM369 553v184h184v-184h-184zM553 184v369h184v-369h-184zM737 0v184h185v-184h-185z" />
<glyph unicode="]" horiz-adv-x="737" d="M0 0v184h369v922h-369v184h553v-1290h-553z" />
<glyph unicode="^" d="M0 737v185h184v-185h-184zM184 922v184h185v-184h-185zM369 1106v184h184v-184h-184zM553 922v184h184v-184h-184zM737 737v185h185v-185h-185z" />
<glyph unicode="_" d="M0 0h922v-184h-922v184z" />
<glyph unicode="`" horiz-adv-x="737" d="M0 1106v184h184v-184h-184zM184 922v184h185v-184h-185zM369 737v185h184v-185h-184z" />
<glyph unicode="a" d="M0 184v185h184v-185h-184zM184 0v184h553v185h-553v184h553v184h185v-737h-738zM184 737v185h553v-185h-553z" />
<glyph unicode="b" d="M0 0v1290h184v-553h185v-184h-185v-369h553v-184h-737zM369 737v185h368v-185h-368zM737 184v553h185v-553h-185z" />
<glyph unicode="c" d="M0 184v553h184v-553h-184zM184 0v184h553v-184h-553zM184 737v185h553v-185h-553zM737 184v185h185v-185h-185zM737 553v184h185v-184h-185z" />
<glyph unicode="d" d="M0 184v553h184v-553h-184zM184 0v184h553v369h-184v184h184v553h185v-1290h-738zM184 737v185h369v-185h-369z" />
<glyph unicode="e" d="M0 184v553h184v-184h553v184h185v-368h-738v-185h-184zM184 0v184h738v-184h-738zM184 737v185h553v-185h-553z" />
<glyph unicode="f" horiz-adv-x="921" d="M0 737v185h184v184h185v-184h368v-185h-368v-737h-185v737h-184zM369 1106v184h368v-184h-368z" />
<glyph unicode="g" d="M0 0h737v-184h-737v184zM0 369v368h184v-368h-184zM184 184v185h553v368h-553v185h738v-922h-185v184h-553z" />
<glyph unicode="h" d="M0 0v1290h184v-553h185v-184h-185v-553h-184zM369 737v185h368v-185h-368zM737 0v737h185v-737h-185z" />
<glyph unicode="i" horiz-adv-x="368" d="M0 0v922h184v-922h-184zM0 1106v184h184v-184h-184z" />
<glyph unicode="j" d="M0 0v369h184v-369h-184zM184 0h553v-184h-553v184zM737 0v922h185v-922h-185zM737 1106v184h185v-184h-185z" />
<glyph unicode="k" horiz-adv-x="921" d="M0 0v1290h184v-737h185v-184h-185v-369h-184zM369 184v185h184v-185h-184zM369 553v184h184v-184h-184zM553 0v184h184v-184h-184zM553 737v185h184v-185h-184z" />
<glyph unicode="l" horiz-adv-x="552" d="M0 184v1106h184v-1106h-184zM184 0v184h185v-184h-185z" />
<glyph unicode="m" d="M0 0v922h369v-185h-185v-737h-184zM369 369v368h184v-368h-184zM553 737v185h184v-185h-184zM737 0v737h185v-737h-185z" />
<glyph unicode="n" d="M0 0v922h737v-185h-553v-737h-184zM737 0v737h185v-737h-185z" />
<glyph unicode="o" d="M0 184v553h184v-553h-184zM184 0v184h553v-184h-553zM184 737v185h553v-185h-553zM737 184v553h185v-553h-185z" />
<glyph unicode="p" d="M0 -184v1106h184v-185h185v-184h-185v-184h553v-185h-553v-368h-184zM369 737v185h368v-185h-368zM737 369v368h185v-368h-185z" />
<glyph unicode="q" d="M0 369v368h184v-368h-184zM184 184v185h553v184h-184v184h184v185h185v-1106h-185v368h-553zM184 737v185h369v-185h-369z" />
<glyph unicode="r" d="M0 0v922h184v-185h185v-184h-185v-553h-184zM369 737v185h368v-185h-368zM737 553v184h185v-184h-185z" />
<glyph unicode="s" d="M0 0v184h737v-184h-737zM0 553v184h184v-184h-184zM184 369v184h553v-184h-553zM184 737v185h738v-185h-738zM737 184v185h185v-185h-185z" />
<glyph unicode="t" horiz-adv-x="737" d="M0 737v185h184v368h185v-368h184v-185h-184v-553h-185v553h-184zM369 0v184h184v-184h-184z" />
<glyph unicode="u" d="M0 184v738h184v-738h-184zM184 0v184h553v738h185v-922h-738z" />
<glyph unicode="v" d="M0 369v553h184v-553h-184zM184 184v185h185v-185h-185zM369 0v184h184v-184h-184zM553 184v185h184v-185h-184zM737 369v553h185v-553h-185z" />
<glyph unicode="w" d="M0 184v738h184v-738h-184zM184 0v184h185v369h184v-369h184v738h185v-922h-738z" />
<glyph unicode="x" d="M0 0v184h184v-184h-184zM0 737v185h184v-185h-184zM184 184v185h185v-185h-185zM184 553v184h185v-184h-185zM369 369v184h184v-184h-184zM553 184v185h184v-185h-184zM553 553v184h184v-184h-184zM737 0v184h185v-184h-185zM737 737v185h185v-185h-185z" />
<glyph unicode="y" d="M0 0h737v-184h-737v184zM0 369v553h184v-553h-184zM184 184v185h553v553h185v-922h-185v184h-553z" />
<glyph unicode="z" d="M0 0v184h184v185h185v-185h553v-184h-922zM0 737v185h922v-185h-185v-184h-184v184h-553zM369 369v184h184v-184h-184z" />
<glyph unicode="{" horiz-adv-x="921" d="M0 553v184h184v-184h-184zM184 184v369h185v-369h-185zM184 737v369h185v-369h-185zM369 0v184h368v-184h-368zM369 1106v184h368v-184h-368z" />
<glyph unicode="|" horiz-adv-x="368" d="M0 0v553h184v-553h-184zM0 737v553h184v-553h-184z" />
<glyph unicode="}" horiz-adv-x="921" d="M0 0v184h369v-184h-369zM0 1106v184h369v-184h-369zM369 184v369h184v-369h-184zM369 737v369h184v-369h-184zM553 553v184h184v-184h-184z" />
<glyph unicode="~" horiz-adv-x="1290" d="M0 922v184h184v-184h-184zM184 1106v184h369v-184h-369zM553 922v184h369v-184h-369zM922 1106v184h184v-184h-184z" />
<glyph unicode="&#xa1;" horiz-adv-x="368" d="M0 -184v921h184v-921h-184zM0 922v184h184v-184h-184z" />
<glyph unicode="&#xa2;" d="M0 184v738h184v-738h-184zM184 0v184h185v738h-185v184h185v184h184v-184h184v-184h-184v-738h184v-184h-184v-184h-184v184h-185zM737 184v185h185v-185h-185zM737 737v185h185v-185h-185z" />
<glyph unicode="&#xa3;" d="M0 0v184h184v369h-184v184h184v369h185v-369h368v-184h-368v-369h553v-184h-922zM369 1106v184h368v-184h-368zM737 922v184h185v-184h-185z" />
<glyph unicode="&#xa4;" d="M0 184v185h184v-185h-184zM0 922v184h184v-184h-184zM184 369v553h553v-553h-553zM369 553h184v184h-184v-184zM737 184v185h185v-185h-185zM737 922v184h185v-184h-185z" />
<glyph unicode="&#xa5;" d="M0 1106v184h184v-184h-184zM184 184v185h185v184h-185v184h185v185h184v-185h184v-184h-184v-184h184v-185h-184v-184h-184v184h-185zM184 922v184h185v-184h-185zM553 922v184h184v-184h-184zM737 1106v184h185v-184h-185z" />
<glyph unicode="&#xa6;" horiz-adv-x="368" d="M0 0v553h184v-553h-184zM0 737v553h184v-553h-184z" />
<glyph unicode="&#xa7;" horiz-adv-x="1474" d="M0 0v184h184v-184h-184zM184 0h738v-184h-738v184zM184 369v368h185v185h553v-185h184v-368h-184v-185h-553v185h-185zM184 922v184h185v-184h-185zM369 1106v184h737v-184h-737zM553 369h184v368h-184v-368zM922 0v184h184v-184h-184zM1106 922v184h184v-184h-184z" />
<glyph unicode="&#xa8;" horiz-adv-x="737" d="M0 1106v184h184v-184h-184zM369 1106v184h184v-184h-184z" />
<glyph unicode="&#xa9;" horiz-adv-x="1474" d="M0 184v922h184v-922h-184zM184 0v184h922v-184h-922zM184 1106v184h922v-184h-922zM369 369v553h553v-185h-369v-184h369v-184h-553zM1106 184v922h184v-922h-184z" />
<glyph unicode="&#xaa;" d="M0 184v185h922v-185h-922zM0 737v185h737v184h185v-553h-738v184h-184zM184 1106v184h553v-184h-553z" />
<glyph unicode="&#xab;" d="M0 553v184h184v-184h-184zM184 369v184h185v-184h-185zM184 737v185h185v-185h-185zM369 184v185h184v-185h-184zM369 553v184h184v-184h-184zM369 922v184h184v-184h-184zM553 369v184h184v-184h-184zM553 737v185h184v-185h-184zM737 184v185h185v-185h-185zM737 922 v184h185v-184h-185z" />
<glyph unicode="&#xac;" d="M0 369v184h922v-369h-185v185h-737z" />
<glyph unicode="&#xae;" d="M0 369v553h184v-369h185v-184h184v184h184v184h-184v-184h-184v369h-185v184h553v-184h185v-553h-185v-185h-553v185h-184z" />
<glyph unicode="&#xaf;" horiz-adv-x="921" d="M0 922v184h737v-184h-737z" />
<glyph unicode="&#xb0;" horiz-adv-x="737" d="M0 922v184h184v-184h-184zM184 737v185h185v-185h-185zM184 1106v184h185v-184h-185zM369 922v184h184v-184h-184z" />
<glyph unicode="&#xb1;" d="M0 184v185h922v-185h-922zM0 737v185h369v184h184v-184h369v-185h-369v-184h-184v184h-369z" />
<glyph unicode="&#xb2;" horiz-adv-x="921" d="M0 553v184h369v185h184v-185h184v-184h-737zM0 922v184h184v-184h-184zM184 1106v184h369v-184h-369zM553 922v184h184v-184h-184z" />
<glyph unicode="&#xb3;" horiz-adv-x="921" d="M0 369v184h553v-184h-553zM0 1106v184h553v-184h-553zM184 737v185h369v-185h-369zM553 553v184h184v-184h-184zM553 922v184h184v-184h-184z" />
<glyph unicode="&#xb4;" horiz-adv-x="737" d="M0 737v185h184v-185h-184zM184 922v184h185v-184h-185zM369 1106v184h184v-184h-184z" />
<glyph unicode="&#xb5;" d="M0 -184v1106h184v-553h185v-185h-185v-368h-184zM369 0v184h368v738h185v-922h-553z" />
<glyph unicode="&#xb6;" horiz-adv-x="1658" d="M0 737v369h184v184h1291v-1290h-369v1106h-184v-1106h-369v553h-369v184h-184zM369 737h184v369h-184v-369z" />
<glyph unicode="&#xb7;" horiz-adv-x="368" d="M0 553v184h184v-184h-184z" />
<glyph unicode="&#xb9;" horiz-adv-x="737" d="M0 553v184h184v369h-184v184h369v-553h184v-184h-553z" />
<glyph unicode="&#xba;" d="M0 184v185h922v-185h-922zM0 737v369h184v-369h-184zM184 553v184h553v-184h-553zM184 1106v184h553v-184h-553zM737 737v369h185v-369h-185z" />
<glyph unicode="&#xbb;" d="M0 184v185h184v-185h-184zM0 922v184h184v-184h-184zM184 369v184h185v-184h-185zM184 737v185h185v-185h-185zM369 184v185h184v-185h-184zM369 553v184h184v-184h-184zM369 922v184h184v-184h-184zM553 369v184h184v-184h-184zM553 737v185h184v-185h-184zM737 553v184 h185v-184h-185z" />
<glyph unicode="&#xbc;" horiz-adv-x="1474" d="M0 0v184h184v-184h-184zM0 737v185h184v184h-184v184h369v-368h184v-185h-553zM184 184v185h185v-185h-185zM369 369v184h184v-184h-184zM553 553v184h184v-184h-184zM737 184v369h185v-184h184v184h184v-553h-184v184h-369zM737 737v185h185v-185h-185zM922 922v184h184 v-184h-184zM1106 1106v184h184v-184h-184z" />
<glyph unicode="&#xbd;" horiz-adv-x="1474" d="M0 0v184h184v-184h-184zM0 737v185h184v184h-184v184h369v-368h184v-185h-553zM184 184v185h185v-185h-185zM369 369v184h184v-184h-184zM553 553v184h184v185h185v-185h184v-184h-553zM737 0v369h369v-185h184v-184h-553zM922 922v184h184v-184h-184zM1106 369v184h184 v-184h-184zM1106 1106v184h184v-184h-184z" />
<glyph unicode="&#xbe;" horiz-adv-x="1474" d="M0 0v184h184v-184h-184zM0 553v184h369v-184h-369zM0 1106v184h553v-553h-184v185h-185v184h-184zM184 184v185h185v-185h-185zM369 369v184h184v-184h-184zM553 553v184h184v-184h-184zM737 184v369h185v-184h184v184h184v-553h-184v184h-369zM737 737v185h185v-185 h-185zM922 922v184h184v-184h-184zM1106 1106v184h184v-184h-184z" />
<glyph unicode="&#xbf;" d="M0 0v369h184v-369h-184zM184 0h553v-184h-553v184zM184 369v184h185v-184h-185zM369 553v184h184v-184h-184zM369 922v184h184v-184h-184zM737 0v184h185v-184h-185z" />
<glyph unicode="&#xc0;" d="M0 0v922h184v-185h553v185h185v-922h-185v553h-553v-553h-184zM0 1290v185h369v-185h-369zM184 922v184h553v-184h-553z" />
<glyph unicode="&#xc1;" d="M0 0v922h184v-185h553v185h185v-922h-185v553h-553v-553h-184zM184 922v184h553v-184h-553zM553 1290v185h369v-185h-369z" />
<glyph unicode="&#xc2;" d="M0 0v922h184v-185h553v185h185v-922h-185v553h-553v-553h-184zM0 1106v184h184v-184h-184zM184 922v184h553v-184h-553zM184 1290v185h553v-185h-553zM737 1106v184h185v-184h-185z" />
<glyph unicode="&#xc3;" d="M0 0v922h184v-185h553v185h185v-922h-185v553h-553v-553h-184zM0 1106v184h184v-184h-184zM184 922v184h369v184h184v-368h-553zM184 1290v185h369v-185h-369zM737 1290v185h185v-185h-185z" />
<glyph unicode="&#xc4;" d="M0 0v1106h184v-184h553v184h185v-1106h-185v737h-553v-737h-184zM0 1290v185h184v-185h-184zM184 1106v184h553v-184h-553zM737 1290v185h185v-185h-185z" />
<glyph unicode="&#xc5;" d="M0 0v922h184v-185h553v185h185v-922h-185v553h-553v-553h-184zM184 922v184h553v-184h-553zM369 1290v185h184v-185h-184z" />
<glyph unicode="&#xc6;" horiz-adv-x="1474" d="M0 0v1106h184v-184h369v184h-369v184h1106v-184h-553v-184h369v-185h-369v-553h553v-184h-737v737h-369v-737h-184z" />
<glyph unicode="&#xc7;" d="M0 369v737h184v-737h-184zM184 184v185h553v-185h-553zM184 1106v184h553v-184h-553zM369 0h368v-184h-368v184zM737 0v184h185v-184h-185zM737 369v184h185v-184h-185zM737 922v184h185v-184h-185z" />
<glyph unicode="&#xc8;" d="M0 0v1106h922v-184h-738v-185h369v-184h-369v-369h738v-184h-922zM0 1290v185h369v-185h-369z" />
<glyph unicode="&#xc9;" d="M0 0v1106h922v-184h-738v-185h369v-184h-369v-369h738v-184h-922zM553 1290v185h369v-185h-369z" />
<glyph unicode="&#xca;" d="M0 0v1290h184v-184h553v184h185v-368h-738v-185h369v-184h-369v-369h738v-184h-922zM184 1290v185h553v-185h-553z" />
<glyph unicode="&#xcb;" d="M0 0v1290h184v185h185v-185h184v185h184v-185h185v-184h-738v-184h369v-185h-369v-553h738v-184h-922z" />
<glyph unicode="&#xcc;" horiz-adv-x="737" d="M0 0v184h184v738h-184v184h553v-184h-184v-738h184v-184h-553zM0 1290v185h369v-185h-369z" />
<glyph unicode="&#xcd;" horiz-adv-x="737" d="M0 0v184h184v738h-184v184h553v-184h-184v-738h184v-184h-553zM184 1290v185h369v-185h-369z" />
<glyph unicode="&#xce;" d="M0 1106v184h184v-184h-184zM184 0v184h185v922h184v-922h184v-184h-553zM184 1290v185h553v-185h-553zM737 1106v184h185v-184h-185z" />
<glyph unicode="&#xcf;" horiz-adv-x="737" d="M0 0v184h184v922h-184v369h184v-185h185v185h184v-369h-184v-922h184v-184h-553z" />
<glyph unicode="&#xd0;" horiz-adv-x="1290" d="M0 553v184h184v553h738v-184h-553v-369h184v-184h-184v-369h553v-184h-738v553h-184zM922 184v922h184v-922h-184z" />
<glyph unicode="&#xd1;" d="M0 0v1290h184v-368h185v-185h-185v-737h-184zM184 1290v185h369v-185h-369zM369 553v184h184v-184h-184zM553 369v184h184v553h185v-1106h-185v369h-184zM553 1106v184h184v-184h-184zM737 1290v185h185v-185h-185z" />
<glyph unicode="&#xd2;" d="M0 184v922h184v-922h-184zM0 1290v185h369v-185h368v-184h-553v184h-184zM184 0v184h553v-184h-553zM737 184v922h185v-922h-185z" />
<glyph unicode="&#xd3;" d="M0 184v922h184v-922h-184zM184 0v184h553v-184h-553zM184 1106v184h369v185h369v-185h-185v-184h-553zM737 184v922h185v-922h-185z" />
<glyph unicode="&#xd4;" d="M0 184v738h184v-738h-184zM0 1106v184h184v-184h-184zM184 0v184h553v-184h-553zM184 922v184h553v-184h-553zM184 1290v185h553v-185h-553zM737 184v738h185v-738h-185zM737 1106v184h185v-184h-185z" />
<glyph unicode="&#xd5;" d="M0 184v738h184v-738h-184zM0 1106v184h184v-184h-184zM184 0v184h553v-184h-553zM184 922v184h369v184h184v-368h-553zM184 1290v185h369v-185h-369zM737 184v738h185v-738h-185zM737 1290v185h185v-185h-185z" />
<glyph unicode="&#xd6;" d="M0 184v922h184v-922h-184zM0 1290v185h184v-185h-184zM184 0v184h553v-184h-553zM184 1106v184h553v-184h-553zM737 184v922h185v-922h-185zM737 1290v185h185v-185h-185z" />
<glyph unicode="&#xd7;" horiz-adv-x="737" d="M0 369v184h184v-184h-184zM0 737v185h184v-185h-184zM184 553v184h185v-184h-185zM369 369v184h184v-184h-184zM369 737v185h184v-185h-184z" />
<glyph unicode="&#xd8;" d="M0 184v922h184v-553h185v-184h-185v-185h-184zM184 0v184h553v-184h-553zM184 1106v184h553v-184h-553zM369 553v184h184v-184h-184zM553 737v185h184v184h185v-922h-185v553h-184z" />
<glyph unicode="&#xd9;" d="M0 184v922h184v-922h-184zM0 1290v185h369v-185h-369zM184 0v184h553v-184h-553zM737 184v922h185v-922h-185z" />
<glyph unicode="&#xda;" d="M0 184v922h184v-922h-184zM184 0v184h553v-184h-553zM553 1290v185h369v-185h-369zM737 184v922h185v-922h-185z" />
<glyph unicode="&#xdb;" d="M0 184v738h184v-738h-184zM0 1106v184h184v-184h-184zM184 0v184h553v-184h-553zM184 1290v185h553v-185h-553zM737 184v738h185v-738h-185zM737 1106v184h185v-184h-185z" />
<glyph unicode="&#xdc;" d="M0 184v922h184v-922h-184zM184 0v184h553v-184h-553zM184 1290v185h185v-185h-185zM553 1290v185h184v-185h-184zM737 184v922h185v-922h-185z" />
<glyph unicode="&#xdd;" d="M0 922v184h184v-184h-184zM184 737v185h185v-185h-185zM369 0v737h184v-737h-184zM553 737v185h184v-185h-184zM553 1290v185h369v-185h-369zM737 922v184h185v-184h-185z" />
<glyph unicode="&#xde;" d="M0 0v1290h184v-184h553v-184h-553v-553h553v-185h-553v-184h-184zM737 369v553h185v-553h-185z" />
<glyph unicode="&#xdf;" d="M0 0v1106h184v-1106h-184zM184 1106v184h369v-184h-369zM369 0h368v-184h-368v184zM369 553v184h184v-184h-184zM553 369v184h184v-184h-184zM553 737v369h184v-369h-184zM737 0v369h185v-369h-185z" />
<glyph unicode="&#xe0;" d="M0 184v185h184v-185h-184zM0 1106v184h369v-184h-369zM184 0v184h553v185h-553v184h553v184h185v-737h-738zM184 737v185h553v-185h-553z" />
<glyph unicode="&#xe1;" d="M0 184v185h184v-185h-184zM184 0v184h553v185h-553v184h553v184h185v-737h-738zM184 737v185h553v-185h-553zM553 1106v184h369v-184h-369z" />
<glyph unicode="&#xe2;" d="M0 184v185h184v-185h-184zM0 922v184h184v-184h-184zM184 0v184h553v185h-553v184h553v184h185v-737h-738zM184 737v185h553v-185h-553zM184 1106v184h553v-184h-553zM737 922v184h185v-184h-185z" />
<glyph unicode="&#xe3;" d="M0 184v185h184v-185h-184zM0 1106v184h184v-184h-184zM184 0v184h553v185h-553v184h553v184h185v-737h-738zM184 737v185h553v-185h-553zM184 1290v185h369v-185h-369zM553 1106v184h184v-184h-184zM737 1290v185h185v-185h-185z" />
<glyph unicode="&#xe4;" d="M0 184v185h184v-185h-184zM184 0v184h553v185h-553v184h553v184h185v-737h-738zM184 737v185h553v-185h-553zM184 1106v184h185v-184h-185zM553 1106v184h184v-184h-184z" />
<glyph unicode="&#xe5;" d="M0 184v185h184v-185h-184zM184 0v184h553v185h-553v184h553v184h185v-737h-738zM184 737v185h553v-185h-553zM369 1106v184h184v-184h-184z" />
<glyph unicode="&#xe6;" horiz-adv-x="1474" d="M0 184v185h184v-185h-184zM184 0v184h369v185h-369v184h369v184h184v-184h369v184h184v-368h-553v-185h553v-184h-1106zM184 737v185h369v-185h-369zM737 737v185h369v-185h-369z" />
<glyph unicode="&#xe7;" d="M0 369v553h184v-553h-184zM184 184v185h553v-185h-553zM184 922v184h553v-184h-553zM369 0h368v-184h-368v184zM737 0v184h185v-184h-185zM737 369v184h185v-184h-185zM737 737v185h185v-185h-185z" />
<glyph unicode="&#xe8;" d="M0 184v553h184v-184h553v184h185v-368h-738v-185h-184zM0 1106v184h369v-184h-369zM184 0v184h738v-184h-738zM184 737v185h553v-185h-553z" />
<glyph unicode="&#xe9;" d="M0 184v553h184v-184h553v184h185v-368h-738v-185h-184zM184 0v184h738v-184h-738zM184 737v185h553v-185h-553zM553 1106v184h369v-184h-369z" />
<glyph unicode="&#xea;" d="M0 184v553h184v-184h553v184h185v-368h-738v-185h-184zM0 922v184h184v-184h-184zM184 0v184h738v-184h-738zM184 737v185h553v-185h-553zM184 1106v184h553v-184h-553zM737 922v184h185v-184h-185z" />
<glyph unicode="&#xeb;" d="M0 184v553h184v-184h553v184h185v-368h-738v-185h-184zM184 0v184h738v-184h-738zM184 737v185h553v-185h-553zM184 1106v184h185v-184h-185zM553 1106v184h184v-184h-184z" />
<glyph unicode="&#xec;" horiz-adv-x="552" d="M0 922v184h369v-184h-369zM184 0v737h185v-737h-185z" />
<glyph unicode="&#xed;" horiz-adv-x="552" d="M0 0v737h184v-737h-184zM0 922v184h369v-184h-369z" />
<glyph unicode="&#xee;" d="M0 737v185h184v-185h-184zM184 922v184h553v-184h-553zM369 0v737h184v-737h-184zM737 737v185h185v-185h-185z" />
<glyph unicode="&#xef;" horiz-adv-x="737" d="M0 922v184h184v-184h-184zM184 0v737h185v-737h-185zM369 922v184h184v-184h-184z" />
<glyph unicode="&#xf0;" d="M0 184v553h184v-553h-184zM0 1290v185h184v-185h-184zM184 0v184h553v-184h-553zM184 737v185h553v184h185v-922h-185v553h-553zM184 1106v184h185v185h184v-185h184v-184h-553z" />
<glyph unicode="&#xf1;" d="M0 0v922h737v-185h-553v-737h-184zM0 1106v184h184v-184h-184zM184 1290v185h369v-185h-369zM553 1106v184h184v-184h-184zM737 0v737h185v-737h-185zM737 1290v185h185v-185h-185z" />
<glyph unicode="&#xf2;" d="M0 184v553h184v-553h-184zM0 1106v184h369v-184h-369zM184 0v184h553v-184h-553zM184 737v185h553v-185h-553zM737 184v553h185v-553h-185z" />
<glyph unicode="&#xf3;" d="M0 184v553h184v-553h-184zM184 0v184h553v-184h-553zM184 737v185h553v-185h-553zM553 1106v184h369v-184h-369zM737 184v553h185v-553h-185z" />
<glyph unicode="&#xf4;" d="M0 184v553h184v-553h-184zM0 922v184h184v-184h-184zM184 0v184h553v-184h-553zM184 737v185h553v-185h-553zM184 1106v184h553v-184h-553zM737 184v553h185v-553h-185zM737 922v184h185v-184h-185z" />
<glyph unicode="&#xf5;" d="M0 184v553h184v-553h-184zM0 1106v184h184v-184h-184zM184 0v184h553v-184h-553zM184 737v185h553v-185h-553zM184 1290v185h369v-185h-369zM553 1106v184h184v-184h-184zM737 184v553h185v-553h-185zM737 1290v185h185v-185h-185z" />
<glyph unicode="&#xf6;" d="M0 184v553h184v-553h-184zM184 0v184h553v-184h-553zM184 737v185h553v-185h-553zM184 1106v184h185v-184h-185zM553 1106v184h184v-184h-184zM737 184v553h185v-553h-185z" />
<glyph unicode="&#xf7;" d="M0 553v184h922v-184h-922zM369 184v185h184v-185h-184zM369 922v184h184v-184h-184z" />
<glyph unicode="&#xf8;" d="M0 184v553h184v-368h185v-185h368v-184h-553v184h-184zM184 737v185h553v-185h185v-553h-185v369h-184v184h-369zM369 369v184h184v-184h-184z" />
<glyph unicode="&#xf9;" d="M0 184v738h184v-738h-184zM0 1106v184h369v-184h-369zM184 0v184h553v738h185v-922h-738z" />
<glyph unicode="&#xfa;" d="M0 184v738h184v-738h-184zM184 0v184h553v738h185v-922h-738zM553 1106v184h369v-184h-369z" />
<glyph unicode="&#xfb;" d="M0 184v553h184v-553h-184zM0 922v184h184v-184h-184zM184 0v184h553v553h185v-737h-738zM184 1106v184h553v-184h-553zM737 922v184h185v-184h-185z" />
<glyph unicode="&#xfc;" d="M0 184v738h184v-738h-184zM184 0v184h553v738h185v-922h-738zM184 1106v184h185v-184h-185zM553 1106v184h184v-184h-184z" />
<glyph unicode="&#xfd;" d="M0 0h737v-184h-737v184zM0 369v553h184v-553h-184zM184 184v185h553v553h185v-922h-185v184h-553zM553 1106v184h369v-184h-369z" />
<glyph unicode="&#xfe;" horiz-adv-x="921" d="M0 -184v1290h184v-184h369v-185h-369v-368h369v-185h-369v-368h-184zM553 369v368h184v-368h-184z" />
<glyph unicode="&#xff;" d="M0 0h737v-184h-737v184zM0 369v553h184v-553h-184zM184 184v185h553v553h185v-922h-185v184h-553zM184 1106v184h185v-184h-185zM553 1106v184h184v-184h-184z" />
<glyph unicode="&#x178;" d="M0 922v184h184v-184h-184zM184 737v185h185v-185h-185zM184 1290v185h185v-185h-185zM369 0v737h184v-737h-184zM553 737v185h184v-185h-184zM553 1290v185h184v-185h-184zM737 922v184h185v-184h-185z" />
<glyph unicode="&#x1c0;" horiz-adv-x="368" d="M0 0v1290h184v-1290h-184z" />
<glyph unicode="&#x1c1;" horiz-adv-x="737" d="M0 0v1290h184v-1290h-184zM369 0v1290h184v-1290h-184z" />
<glyph unicode="&#x1c2;" d="M0 369v184h369v184h-369v185h369v368h184v-368h369v-185h-369v-184h369v-184h-369v-369h-184v369h-369z" />
<glyph unicode="&#x374;" horiz-adv-x="737" d="M0 737v185h184v-185h-184zM184 922v184h185v-184h-185zM369 1106v184h184v-184h-184z" />
<glyph unicode="&#x391;" d="M0 0v1106h184v-369h553v369h185v-1106h-185v553h-553v-553h-184zM184 1106v184h553v-184h-553z" />
<glyph unicode="&#x392;" d="M0 0v1290h737v-184h-553v-369h553v-184h-553v-369h553v-184h-737zM737 184v369h185v-369h-185zM737 737v369h185v-369h-185z" />
<glyph unicode="&#x393;" d="M0 0v1290h922v-184h-738v-1106h-184z" />
<glyph unicode="&#x394;" horiz-adv-x="1474" d="M0 0v369h184v-185h922v185h184v-369h-1290zM184 369v368h185v-368h-185zM369 737v369h184v-369h-184zM553 1106v184h184v-184h-184zM737 737v369h185v-369h-185zM922 369v368h184v-368h-184z" />
<glyph unicode="&#x395;" d="M0 0v1290h922v-184h-738v-184h553v-185h-553v-553h738v-184h-922z" />
<glyph unicode="&#x396;" d="M0 0v369h184v-185h738v-184h-922zM0 1106v184h922v-368h-185v184h-737zM184 369v184h185v-184h-185zM369 553v184h184v-184h-184zM553 737v185h184v-185h-184z" />
<glyph unicode="&#x397;" d="M0 0v1290h184v-553h553v553h185v-1290h-185v553h-553v-553h-184z" />
<glyph unicode="&#x398;" horiz-adv-x="1290" d="M0 184v922h184v-922h-184zM184 0v184h738v-184h-738zM184 1106v184h738v-184h-738zM369 553v184h368v-184h-368zM922 184v922h184v-922h-184z" />
<glyph unicode="&#x399;" horiz-adv-x="737" d="M0 0v184h184v922h-184v184h553v-184h-184v-922h184v-184h-553z" />
<glyph unicode="&#x39a;" d="M0 0v1290h184v-553h185v-184h-185v-553h-184zM369 369v184h184v-184h-184zM369 737v185h184v-185h-184zM553 184v185h184v-185h-184zM553 922v184h184v-184h-184zM737 0v184h185v-184h-185zM737 1106v184h185v-184h-185z" />
<glyph unicode="&#x39b;" d="M0 0v737h184v-737h-184zM184 737v369h185v-369h-185zM369 1106v184h184v-184h-184zM553 737v369h184v-369h-184zM737 0v737h185v-737h-185z" />
<glyph unicode="&#x39c;" d="M0 0v1290h184v-184h185v-184h-185v-922h-184zM369 553v369h184v-369h-184zM553 922v184h184v184h185v-1290h-185v922h-184z" />
<glyph unicode="&#x39d;" d="M0 0v1290h184v-184h185v-184h-185v-922h-184zM369 737v185h184v-185h-184zM553 553v184h184v553h185v-1290h-185v553h-184z" />
<glyph unicode="&#x39e;" d="M0 0v184h922v-184h-922zM0 1106v184h922v-184h-922zM184 553v184h553v-184h-553z" />
<glyph unicode="&#x39f;" d="M0 184v922h184v-922h-184zM184 0v184h553v-184h-553zM184 1106v184h553v-184h-553zM737 184v922h185v-922h-185z" />
<glyph unicode="&#x3a0;" horiz-adv-x="1290" d="M0 1106v184h1106v-184h-184v-1106h-185v1106h-368v-1106h-185v1106h-184z" />
<glyph unicode="&#x3a1;" d="M0 0v1290h737v-184h-553v-369h553v-184h-553v-553h-184zM737 737v369h185v-369h-185z" />
<glyph unicode="&#x3a3;" d="M0 0v369h184v-185h738v-184h-922zM0 922v368h922v-184h-738v-184h-184zM184 369v184h185v-184h-185zM184 737v185h185v-185h-185zM369 553v184h184v-184h-184z" />
<glyph unicode="&#x3a4;" d="M0 1106v184h922v-184h-369v-1106h-184v1106h-369z" />
<glyph unicode="&#x3a5;" d="M0 1106v184h184v-184h-184zM184 922v184h185v-184h-185zM369 0v922h184v-922h-184zM553 922v184h184v-184h-184zM737 1106v184h185v-184h-185z" />
<glyph unicode="&#x3a6;" horiz-adv-x="1474" d="M0 369v553h184v-553h-184zM184 184v185h369v553h-369v184h369v184h184v-184h369v-184h-369v-553h369v-185h-369v-184h-184v184h-369zM1106 369v553h184v-553h-184z" />
<glyph unicode="&#x3a7;" d="M0 0v369h184v-369h-184zM0 922v368h184v-368h-184zM184 369v184h185v-184h-185zM184 737v185h185v-185h-185zM369 553v184h184v-184h-184zM553 369v184h184v-184h-184zM553 737v185h184v-185h-184zM737 0v369h185v-369h-185zM737 922v368h185v-368h-185z" />
<glyph unicode="&#x3a8;" horiz-adv-x="1474" d="M0 1106v184h184v-184h-184zM184 737v369h185v-369h-185zM369 553v184h184v553h184v-553h185v-184h-185v-553h-184v553h-184zM922 737v369h184v-369h-184zM1106 1106v184h184v-184h-184z" />
<glyph unicode="&#x3a9;" horiz-adv-x="1474" d="M0 0v184h369v185h184v-369h-553zM0 553v553h184v-553h-184zM184 369v184h185v-184h-185zM184 1106v184h922v-184h-922zM737 0v369h185v-185h368v-184h-553zM922 369v184h184v-184h-184zM1106 553v553h184v-553h-184z" />
<glyph unicode="&#x3b1;" horiz-adv-x="1474" d="M0 184v553h184v-553h-184zM184 0v184h553v-184h-553zM184 737v185h553v-185h-553zM737 184v553h185v-553h-185zM922 0v184h368v-184h-368zM922 737v185h184v-185h-184z" />
<glyph unicode="&#x3b2;" d="M0 -184v1106h184v-738h553v-184h-553v-184h-184zM184 922v184h553v-184h-553zM369 553v184h368v-184h-368zM737 184v369h185v-369h-185zM737 737v185h185v-185h-185z" />
<glyph unicode="&#x3b3;" d="M0 737v185h184v-185h-184zM184 553v184h185v-184h-185zM369 -184v737h184v-737h-184zM553 553v184h184v-184h-184zM737 737v185h185v-185h-185z" />
<glyph unicode="&#x3b4;" d="M0 184v369h184v-369h-184zM0 922v184h184v-184h-184zM184 0v184h553v-184h-553zM184 553v369h369v-185h-184v-184h-185zM184 1106v184h738v-184h-738zM553 553v184h184v-184h-184zM737 184v369h185v-369h-185z" />
<glyph unicode="&#x3b5;" d="M0 184v553h184v-184h553v-184h-553v-185h-184zM184 0v184h738v-184h-738zM184 737v185h738v-185h-738z" />
<glyph unicode="&#x3b6;" d="M0 369v553h184v-553h-184zM0 1106v184h369v-184h368v-184h-553v184h-184zM184 0h553v-184h-553v184zM184 184v185h553v-185h-553zM737 0v184h185v-184h-185z" />
<glyph unicode="&#x3b7;" d="M0 0v922h184v-185h185v-184h-185v-553h-184zM369 737v185h368v-185h-368zM737 -184v921h185v-921h-185z" />
<glyph unicode="&#x3b8;" d="M0 184v738h184v-185h553v185h185v-738h-185v369h-553v-369h-184zM184 0v184h553v-184h-553zM184 922v184h553v-184h-553z" />
<glyph unicode="&#x3b9;" horiz-adv-x="368" d="M0 0v922h184v-922h-184z" />
<glyph unicode="&#x3ba;" d="M0 0v922h184v-369h369v-184h-369v-369h-184zM553 184v185h184v-185h-184zM553 553v184h184v-184h-184zM737 0v184h185v-184h-185zM737 737v185h185v-185h-185z" />
<glyph unicode="&#x3bb;" d="M0 0v369h184v-369h-184zM0 922v184h369v-184h-369zM184 369v368h185v-368h-185zM369 737v185h184v-185h-184zM553 369v368h184v-368h-184zM737 0v369h185v-369h-185z" />
<glyph unicode="&#x3bc;" d="M0 -184v1106h184v-553h185v-185h-185v-368h-184zM369 0v184h368v738h185v-922h-553z" />
<glyph unicode="&#x3bd;" d="M0 553v369h184v-369h-184zM184 184v369h185v-369h-185zM369 0v184h184v-184h-184zM553 184v369h184v-369h-184zM737 553v369h185v-369h-185z" />
<glyph unicode="&#x3be;" horiz-adv-x="1290" d="M0 184v369h184v-369h-184zM0 737v185h184v-185h-184zM0 1106v184h184v-184h-184zM184 0v184h922v-184h-184v-184h-185v184h-553zM184 553v184h553v-184h-553zM184 922v184h738v-184h-738z" />
<glyph unicode="&#x3bf;" d="M0 184v553h184v-553h-184zM184 0v184h553v-184h-553zM184 737v185h553v-185h-553zM737 184v553h185v-553h-185z" />
<glyph unicode="&#x3c0;" d="M0 737v185h922v-185h-185v-737h-184v737h-184v-737h-185v737h-184z" />
<glyph unicode="&#x3c1;" d="M0 -184v921h184v-553h553v-184h-553v-184h-184zM184 737v185h553v-185h-553zM737 184v553h185v-553h-185z" />
<glyph unicode="&#x3c2;" d="M0 184v553h184v-553h-184zM184 0v184h738v-368h-185v184h-553zM184 737v185h738v-185h-738z" />
<glyph unicode="&#x3c3;" horiz-adv-x="1290" d="M0 184v553h184v-553h-184zM184 0v184h553v-184h-553zM184 737v185h922v-185h-184v-553h-185v553h-553z" />
<glyph unicode="&#x3c4;" d="M0 737v185h922v-185h-369v-553h-184v553h-369zM553 0v184h184v-184h-184z" />
<glyph unicode="&#x3c5;" d="M0 184v738h184v-738h-184zM184 0v184h553v-184h-553zM737 184v738h185v-738h-185z" />
<glyph unicode="&#x3c6;" d="M0 184v369h184v-369h-184zM184 0v184h185v369h-185v184h185v185h184v-185h184v-184h-184v-369h184v-184h-184v-184h-184v184h-185zM737 184v369h185v-369h-185z" />
<glyph unicode="&#x3c7;" d="M0 0v184h184v-184h-184zM0 737v185h184v-185h-184zM184 184v185h185v-185h-185zM184 553v184h185v-184h-185zM369 369v184h184v-184h-184zM553 184v185h184v-185h-184zM553 553v184h184v-184h-184zM737 0v184h185v-184h-185zM737 737v185h185v-185h-185z" />
<glyph unicode="&#x3c8;" d="M0 369v553h184v-553h-184zM184 184v185h185v553h184v-553h184v-185h-184v-368h-184v368h-185zM737 369v553h185v-553h-185z" />
<glyph unicode="&#x3c9;" horiz-adv-x="1474" d="M0 184v553h184v-553h-184zM184 0v184h369v-184h-369zM184 737v185h185v-185h-185zM553 184v369h184v-369h-184zM737 0v184h369v-184h-369zM922 737v185h184v-185h-184zM1106 184v553h184v-553h-184z" />
<glyph unicode="&#x401;" d="M0 0v1290h184v185h185v-185h184v185h184v-185h185v-184h-738v-369h553v-184h-553v-369h738v-184h-922z" />
<glyph unicode="&#x402;" horiz-adv-x="1290" d="M0 1106v184h737v-184h-368v-184h553v-185h-553v-737h-185v1106h-184zM553 0v184h369v-184h-369zM922 184v553h184v-553h-184z" />
<glyph unicode="&#x403;" d="M0 0v1106h922v-184h-738v-922h-184zM369 1290v185h553v-185h-553z" />
<glyph unicode="&#x404;" d="M0 184v922h184v-369h553v-184h-553v-369h-184zM184 0v184h553v-184h-553zM184 1106v184h553v-184h-553zM737 184v185h185v-185h-185zM737 922v184h185v-184h-185z" />
<glyph unicode="&#x406;" horiz-adv-x="737" d="M0 0v184h184v922h-184v184h553v-184h-184v-922h184v-184h-553z" />
<glyph unicode="&#x407;" horiz-adv-x="737" d="M0 0v184h184v738h-184v184h553v-184h-184v-738h184v-184h-553zM0 1290v185h184v-185h-184zM369 1290v185h184v-185h-184z" />
<glyph unicode="&#x409;" horiz-adv-x="1843" d="M0 0v184h184v-184h-184zM184 184v922h185v-922h-185zM369 1106v184h553v-553h553v-184h-553v-369h553v-184h-738v1106h-368zM1475 184v369h184v-369h-184z" />
<glyph unicode="&#x40a;" horiz-adv-x="1843" d="M0 0v1290h184v-553h553v553h185v-553h553v-184h-553v-369h553v-184h-738v553h-553v-553h-184zM1475 184v369h184v-369h-184z" />
<glyph unicode="&#x40e;" d="M0 0v184h737v-184h-737zM0 737v553h184v-553h-184zM184 553v184h553v553h185v-1106h-185v369h-553zM369 1106v184h184v-184h-184zM553 1290v185h184v-185h-184z" />
<glyph unicode="&#x40f;" d="M0 184v1106h184v-921h553v921h185v-1106h-369v-184h-184v184h-369z" />
<glyph unicode="&#x410;" d="M0 0v1106h184v-369h553v369h185v-1106h-185v553h-553v-553h-184zM184 1106v184h553v-184h-553z" />
<glyph unicode="&#x411;" d="M0 0v1290h737v-184h-553v-369h553v-184h-553v-369h553v-184h-737zM737 184v369h185v-369h-185z" />
<glyph unicode="&#x412;" d="M0 0v1290h737v-184h-553v-369h553v-184h-553v-369h553v-184h-737zM737 184v369h185v-369h-185zM737 737v369h185v-369h-185z" />
<glyph unicode="&#x413;" d="M0 0v1290h922v-184h-738v-1106h-184z" />
<glyph unicode="&#x414;" horiz-adv-x="1290" d="M0 -184v368h184v922h185v-922h368v922h-368v184h553v-1106h184v-368h-184v184h-738v-184h-184z" />
<glyph unicode="&#x415;" d="M0 0v1290h922v-184h-738v-369h553v-184h-553v-369h738v-184h-922z" />
<glyph unicode="&#x416;" horiz-adv-x="1474" d="M0 0v184h184v-184h-184zM0 1106v184h184v-184h-184zM184 184v369h185v-369h-185zM184 737v369h185v-369h-185zM369 553v184h184v553h184v-553h185v-184h-185v-553h-184v553h-184zM922 184v369h184v-369h-184zM922 737v369h184v-369h-184zM1106 0v184h184v-184h-184z M1106 1106v184h184v-184h-184z" />
<glyph unicode="&#x417;" d="M0 184v185h184v-185h-184zM0 922v184h184v-184h-184zM184 0v184h553v-184h-553zM184 1106v184h553v-184h-553zM369 553v184h368v-184h-368zM737 184v369h185v-369h-185zM737 737v369h185v-369h-185z" />
<glyph unicode="&#x418;" d="M0 0v1290h184v-1106h185v-184h-369zM369 184v185h184v-185h-184zM553 369v184h184v737h185v-1290h-185v369h-184z" />
<glyph unicode="&#x419;" d="M0 0v1290h184v-1106h185v-184h-369zM369 184v185h184v-185h-184zM369 1106v184h184v-184h-184zM553 369v184h184v737h185v-1290h-185v369h-184zM553 1290v185h184v-185h-184z" />
<glyph unicode="&#x41a;" d="M0 0v1290h184v-553h185v-184h-185v-553h-184zM369 369v184h184v-184h-184zM369 737v185h184v-185h-184zM553 184v185h184v-185h-184zM553 922v184h184v-184h-184zM737 0v184h185v-184h-185zM737 1106v184h185v-184h-185z" />
<glyph unicode="&#x41b;" d="M0 0v184h184v-184h-184zM184 184v922h185v-922h-185zM369 1106v184h553v-1290h-185v1106h-368z" />
<glyph unicode="&#x41c;" d="M0 0v1290h184v-184h185v-184h-185v-922h-184zM369 737v185h184v-185h-184zM553 922v184h184v184h185v-1290h-185v922h-184z" />
<glyph unicode="&#x41d;" d="M0 0v1290h184v-553h553v553h185v-1290h-185v553h-553v-553h-184z" />
<glyph unicode="&#x41e;" d="M0 184v922h184v-922h-184zM184 0v184h553v-184h-553zM184 1106v184h553v-184h-553zM737 184v922h185v-922h-185z" />
<glyph unicode="&#x41f;" d="M0 0v1290h922v-1290h-185v1106h-553v-1106h-184z" />
<glyph unicode="&#x420;" d="M0 0v1290h737v-184h-553v-369h553v-184h-553v-553h-184zM737 737v369h185v-369h-185z" />
<glyph unicode="&#x421;" d="M0 184v922h184v-922h-184zM184 0v184h553v-184h-553zM184 1106v184h553v-184h-553zM737 184v185h185v-185h-185zM737 922v184h185v-184h-185z" />
<glyph unicode="&#x422;" d="M0 1106v184h922v-184h-369v-1106h-184v1106h-369z" />
<glyph unicode="&#x423;" d="M0 184v185h184v-185h-184zM0 737v553h184v-553h-184zM184 0v184h553v-184h-553zM184 553v184h553v553h185v-1106h-185v369h-553z" />
<glyph unicode="&#x424;" horiz-adv-x="1474" d="M0 553v369h184v-369h-184zM184 369v184h369v369h-369v184h369v184h184v-184h369v-184h-369v-369h369v-184h-369v-369h-184v369h-369zM1106 553v369h184v-369h-184z" />
<glyph unicode="&#x425;" d="M0 0v369h184v-369h-184zM0 922v368h184v-368h-184zM184 369v184h185v-184h-185zM184 737v185h185v-185h-185zM369 553v184h184v-184h-184zM553 369v184h184v-184h-184zM553 737v185h184v-185h-184zM737 0v369h185v-369h-185zM737 922v368h185v-368h-185z" />
<glyph unicode="&#x426;" horiz-adv-x="1290" d="M0 0v1290h184v-1106h553v1106h185v-1106h184v-368h-184v184h-922z" />
<glyph unicode="&#x427;" d="M0 737v553h184v-553h-184zM184 553v184h553v553h185v-1290h-185v553h-553z" />
<glyph unicode="&#x428;" d="M0 0v1290h184v-1106h185v1106h184v-1106h184v1106h185v-1290h-922z" />
<glyph unicode="&#x429;" horiz-adv-x="1290" d="M0 0v1290h184v-1106h185v1106h184v-1106h184v1106h185v-1106h184v-368h-184v184h-922z" />
<glyph unicode="&#x42a;" horiz-adv-x="1290" d="M0 1106v184h369v-553h553v-184h-553v-369h553v-184h-738v1106h-184zM922 184v369h184v-369h-184z" />
<glyph unicode="&#x42b;" horiz-adv-x="1474" d="M0 0v1290h184v-553h553v-184h-553v-369h553v-184h-737zM737 184v369h185v-369h-185zM1106 0v1290h184v-1290h-184z" />
<glyph unicode="&#x42c;" d="M0 0v1290h184v-553h553v-184h-553v-369h553v-184h-737zM737 184v369h185v-369h-185z" />
<glyph unicode="&#x42d;" d="M0 184v185h184v-185h-184zM0 922v184h184v-184h-184zM184 0v184h553v-184h-553zM184 1106v184h553v-184h-553zM369 553v184h368v369h185v-922h-185v369h-368z" />
<glyph unicode="&#x42e;" horiz-adv-x="1290" d="M0 0v1290h184v-553h185v369h184v-922h-184v369h-185v-553h-184zM553 0v184h369v-184h-369zM553 1106v184h369v-184h-369zM922 184v922h184v-922h-184z" />
<glyph unicode="&#x42f;" d="M0 0v184h184v-184h-184zM0 737v369h184v-369h-184zM184 184v185h185v-185h-185zM184 553v184h553v369h-553v184h738v-1290h-185v553h-184v-184h-184v184h-185z" />
<glyph unicode="&#x430;" d="M0 184v185h184v-185h-184zM184 0v184h553v185h-553v184h553v184h185v-737h-738zM184 737v185h553v-185h-553z" />
<glyph unicode="&#x431;" d="M0 184v369h184v-369h-184zM0 737v185h184v-185h-184zM184 0v184h553v-184h-553zM184 553v184h553v-184h-553zM184 922v184h738v-184h-738zM737 184v369h185v-369h-185z" />
<glyph unicode="&#x432;" d="M0 0v922h737v-185h-553v-184h553v-184h-553v-185h553v-184h-737zM737 184v185h185v-185h-185zM737 553v184h185v-184h-185z" />
<glyph unicode="&#x433;" horiz-adv-x="921" d="M0 0v922h737v-185h-553v-737h-184z" />
<glyph unicode="&#x434;" horiz-adv-x="1290" d="M0 -184v368h184v553h185v-553h368v553h-368v185h553v-738h184v-368h-184v184h-738v-184h-184z" />
<glyph unicode="&#x435;" d="M0 184v553h184v-184h553v184h185v-368h-738v-185h-184zM184 0v184h738v-184h-738zM184 737v185h553v-185h-553z" />
<glyph unicode="&#x436;" d="M0 0v369h184v-369h-184zM0 553v369h184v-369h-184zM184 369v184h185v369h184v-369h184v-184h-184v-369h-184v369h-185zM737 0v369h185v-369h-185zM737 553v369h185v-369h-185z" />
<glyph unicode="&#x437;" d="M0 0v184h737v-184h-737zM0 737v185h737v-185h-737zM184 369v184h553v-184h-553zM737 184v185h185v-185h-185zM737 553v184h185v-184h-185z" />
<glyph unicode="&#x438;" d="M0 184v738h184v-738h-184zM184 0v184h369v-184h-369zM553 184v185h184v553h185v-922h-185v184h-184z" />
<glyph unicode="&#x439;" d="M0 184v738h184v-738h-184zM184 0v184h369v-184h-369zM369 922v184h184v-184h-184zM553 184v185h184v553h185v-922h-185v184h-184zM553 1106v184h184v-184h-184z" />
<glyph unicode="&#x43a;" d="M0 0v922h184v-369h369v-184h-369v-369h-184zM553 184v185h184v-185h-184zM553 553v184h184v-184h-184zM737 0v184h185v-184h-185zM737 737v185h185v-185h-185z" />
<glyph unicode="&#x43b;" d="M0 0v184h184v-184h-184zM184 184v553h185v-553h-185zM369 737v185h553v-922h-185v737h-368z" />
<glyph unicode="&#x43c;" d="M0 0v922h184v-185h185v-184h-185v-553h-184zM369 369v184h184v-184h-184zM553 553v184h184v185h185v-922h-185v553h-184z" />
<glyph unicode="&#x43d;" d="M0 0v922h184v-369h553v369h185v-922h-185v369h-553v-369h-184z" />
<glyph unicode="&#x43e;" d="M0 184v553h184v-553h-184zM184 0v184h553v-184h-553zM184 737v185h553v-185h-553zM737 184v553h185v-553h-185z" />
<glyph unicode="&#x43f;" d="M0 0v922h922v-922h-185v737h-553v-737h-184z" />
<glyph unicode="&#x440;" d="M0 -184v1106h737v-185h-553v-553h553v-184h-553v-184h-184zM737 184v553h185v-553h-185z" />
<glyph unicode="&#x441;" d="M0 184v553h184v-553h-184zM184 0v184h553v-184h-553zM184 737v185h553v-185h-553zM737 184v185h185v-185h-185zM737 553v184h185v-184h-185z" />
<glyph unicode="&#x442;" d="M0 737v185h922v-185h-369v-737h-184v737h-369z" />
<glyph unicode="&#x443;" d="M0 0h737v-184h-737v184zM0 369v553h184v-553h-184zM184 184v185h553v553h185v-922h-185v184h-553z" />
<glyph unicode="&#x444;" d="M0 184v553h184v-553h-184zM184 0v184h185v553h-185v185h185v184h184v-184h184v-185h-184v-553h184v-184h-184v-184h-184v184h-185zM737 184v553h185v-553h-185z" />
<glyph unicode="&#x445;" d="M0 0v184h184v-184h-184zM0 737v185h184v-185h-184zM184 184v185h185v-185h-185zM184 553v184h185v-184h-185zM369 369v184h184v-184h-184zM553 184v185h184v-185h-184zM553 553v184h184v-184h-184zM737 0v184h185v-184h-185zM737 737v185h185v-185h-185z" />
<glyph unicode="&#x446;" horiz-adv-x="1290" d="M0 0v922h184v-738h553v738h185v-738h184v-368h-184v184h-922z" />
<glyph unicode="&#x447;" d="M0 553v369h184v-369h-184zM184 369v184h553v369h185v-922h-185v369h-553z" />
<glyph unicode="&#x448;" d="M0 0v922h184v-738h185v553h184v-553h184v738h185v-922h-922z" />
<glyph unicode="&#x449;" horiz-adv-x="1290" d="M0 0v922h184v-738h185v553h184v-553h184v738h185v-738h184v-368h-184v184h-922z" />
<glyph unicode="&#x44a;" horiz-adv-x="1290" d="M0 737v185h369v-185h553v-184h-553v-369h553v-184h-738v737h-184zM922 184v369h184v-369h-184z" />
<glyph unicode="&#x44b;" horiz-adv-x="1474" d="M0 0v922h184v-185h553v-184h-553v-369h553v-184h-737zM737 184v369h185v-369h-185zM1106 0v922h184v-922h-184z" />
<glyph unicode="&#x44c;" d="M0 0v922h184v-185h553v-184h-553v-369h553v-184h-737zM737 184v369h185v-369h-185z" />
<glyph unicode="&#x44d;" d="M0 184v185h184v-185h-184zM0 553v184h184v-184h-184zM184 0v184h553v-184h-553zM184 737v185h553v-185h-553zM369 369v184h368v184h185v-553h-185v185h-368z" />
<glyph unicode="&#x44e;" horiz-adv-x="1290" d="M0 0v922h184v-369h185v184h184v-553h-184v185h-185v-369h-184zM553 0v184h369v-184h-369zM553 737v185h369v-185h-369zM922 184v553h184v-553h-184z" />
<glyph unicode="&#x44f;" d="M0 0v369h184v-369h-184zM0 553v184h184v-184h-184zM184 369v184h553v184h-553v185h738v-922h-185v369h-553z" />
<glyph unicode="&#x451;" d="M0 184v553h184v-184h553v184h185v-368h-738v-185h-184zM184 0v184h738v-184h-738zM184 737v185h553v-185h-553zM184 1106v184h185v-184h-185zM553 1106v184h184v-184h-184z" />
<glyph unicode="&#x452;" horiz-adv-x="1290" d="M0 922v184h184v184h185v-184h184v-184h-184v-185h184v-184h-184v-553h-185v922h-184zM553 0h369v-184h-369v184zM553 737v185h369v-185h-369zM922 0v737h184v-737h-184z" />
<glyph unicode="&#x454;" d="M0 184v553h184v-184h553v-184h-553v-185h-184zM184 0v184h738v-184h-738zM184 737v185h738v-185h-738z" />
<glyph unicode="&#x456;" horiz-adv-x="368" d="M0 0v922h184v-922h-184zM0 1106v184h184v-184h-184z" />
<glyph unicode="&#x457;" horiz-adv-x="737" d="M0 1106v184h184v-184h-184zM184 0v922h185v-922h-185zM369 1106v184h184v-184h-184z" />
<glyph unicode="&#x458;" d="M0 0v369h184v-369h-184zM184 0h553v-184h-553v184zM737 0v922h185v-922h-185zM737 1106v184h185v-184h-185z" />
<glyph unicode="&#x459;" horiz-adv-x="1843" d="M0 0v184h184v-184h-184zM184 184v553h185v-553h-185zM369 737v185h553v-185h553v-184h-553v-369h553v-184h-738v737h-368zM1475 184v369h184v-369h-184z" />
<glyph unicode="&#x45a;" horiz-adv-x="1843" d="M0 0v922h184v-369h553v369h185v-185h553v-184h-553v-369h553v-184h-738v369h-553v-369h-184zM1475 184v369h184v-369h-184z" />
<glyph unicode="&#x45b;" horiz-adv-x="1290" d="M0 922v184h184v184h185v-184h184v-184h-184v-185h184v-184h-184v-553h-185v922h-184zM553 737v185h369v-185h-369zM922 0v737h184v-737h-184z" />
<glyph unicode="&#x45e;" d="M0 0h737v-184h-737v184zM0 369v553h184v-553h-184zM184 184v185h553v553h185v-922h-185v184h-553zM369 922v184h184v-184h-184zM553 1106v184h184v-184h-184z" />
<glyph unicode="&#x45f;" d="M0 0v922h184v-738h553v738h185v-922h-369v-184h-184v184h-369z" />
<glyph unicode="&#x462;" horiz-adv-x="1290" d="M0 922v184h184v184h185v-184h368v-184h-368v-185h553v-184h-553v-369h553v-184h-738v922h-184zM922 184v369h184v-369h-184z" />
<glyph unicode="&#x463;" horiz-adv-x="1290" d="M0 737v185h184v184h185v-184h184v-185h369v-184h-553v-369h553v-184h-738v737h-184zM922 184v369h184v-369h-184z" />
<glyph unicode="&#x464;" horiz-adv-x="1474" d="M0 0v1290h184v-553h185v369h184v-369h369v-184h-369v-369h-184v369h-185v-553h-184zM553 0v184h553v-184h-553zM553 1106v184h553v-184h-553zM1106 184v185h184v-185h-184zM1106 922v184h184v-184h-184z" />
<glyph unicode="&#x465;" horiz-adv-x="1474" d="M0 0v922h184v-369h185v184h184v-184h369v-184h-369v-185h-184v185h-185v-369h-184zM553 0v184h553v-184h-553zM553 737v185h553v-185h-553zM1106 184v185h184v-185h-184zM1106 553v184h184v-184h-184z" />
<glyph unicode="&#x490;" d="M0 0v1290h737v185h185v-369h-738v-1106h-184z" />
<glyph unicode="&#x491;" horiz-adv-x="921" d="M0 0v922h553v184h184v-369h-553v-737h-184z" />
<glyph unicode="&#x1e9e;" d="M0 -184v1474h737v-184h-553v-1290h-184zM369 0h368v-184h-368v184zM553 553v184h184v-184h-184zM737 0v553h185v-553h-185zM737 737v369h185v-369h-185z" />
<glyph unicode="&#x2014;" horiz-adv-x="1290" d="M0 553v184h1106v-184h-1106z" />
<glyph unicode="&#x2018;" horiz-adv-x="552" d="M0 737v369h184v-369h-184zM184 1106v184h185v-184h-185z" />
<glyph unicode="&#x2019;" horiz-adv-x="552" d="M0 737v185h184v-185h-184zM184 922v368h185v-368h-185z" />
<glyph unicode="&#x201a;" horiz-adv-x="552" d="M0 0h184v-184h-184v184zM184 0v369h185v-369h-185z" />
<glyph unicode="&#x201b;" horiz-adv-x="552" d="M0 922v368h184v-368h-184zM184 737v185h185v-185h-185z" />
<glyph unicode="&#x201c;" horiz-adv-x="921" d="M0 737v369h184v-369h-184zM184 1106v184h185v-184h-185zM369 737v369h184v-369h-184zM553 1106v184h184v-184h-184z" />
<glyph unicode="&#x201d;" horiz-adv-x="921" d="M0 737v185h184v-185h-184zM184 922v368h185v-368h-185zM369 737v185h184v-185h-184zM553 922v368h184v-368h-184z" />
<glyph unicode="&#x201e;" horiz-adv-x="921" d="M0 0h184v-184h-184v184zM184 0v369h185v-369h-185zM369 0h184v-184h-184v184zM553 0v369h184v-369h-184z" />
<glyph unicode="&#x2020;" horiz-adv-x="1474" d="M0 737v185h369v184h-185v184h922v-184h-184v-184h368v-185h-184v-553h-184v553h-553v-553h-185v553h-184zM369 0v184h184v-184h-184zM553 0h184v-184h-184v184zM737 0v184h185v-184h-185z" />
<glyph unicode="&#x2022;" horiz-adv-x="921" d="M0 553v369h184v184h369v-184h184v-369h-184v-184h-369v184h-184z" />
<glyph unicode="&#x2026;" d="M0 -184v368h184v-368h-184zM369 -184v368h184v-368h-184zM737 -184v368h185v-368h-185z" />
<glyph unicode="&#x2039;" horiz-adv-x="737" d="M0 553v184h184v-184h-184zM184 369v184h185v-184h-185zM184 737v185h185v-185h-185zM369 184v185h184v-185h-184zM369 922v184h184v-184h-184z" />
<glyph unicode="&#x203a;" horiz-adv-x="737" d="M0 184v185h184v-185h-184zM0 922v184h184v-184h-184zM184 369v184h185v-184h-185zM184 737v185h185v-185h-185zM369 553v184h184v-184h-184z" />
<glyph unicode="&#x20ac;" horiz-adv-x="1290" d="M0 369v184h184v184h-184v185h184v184h185v-184h184v-185h-184v-184h184v-184h-184v-185h-185v185h-184zM369 0v184h553v-184h-553zM369 1106v184h553v-184h-553zM922 184v185h184v-185h-184zM922 922v184h184v-184h-184z" />
<glyph unicode="&#x2122;" horiz-adv-x="1474" d="M0 1106v184h737v-184h369v184h184v-553h-184v185h-184v-185h-369v369h-184v-369h-185v369h-184z" />
<glyph unicode="&#x25fc;" horiz-adv-x="921" d="M0 0v922h922v-922h-922z" />
<glyph unicode="&#xfb01;" d="M0 0v1106h184v-184h369v-185h-369v-737h-184zM184 1106v184h553v-184h-553zM737 0v737h185v-737h-185zM737 922v184h185v-184h-185z" />
<glyph unicode="&#xfb02;" horiz-adv-x="1290" d="M0 0v1106h184v-184h369v-185h-369v-737h-184zM184 1106v184h738v-1106h-185v922h-553zM922 0v184h184v-184h-184z" />
</font>
</defs>
</svg>
